<svg width="150" height="150" viewBox="0 0 150 150" fill="none" xmlns="http://www.w3.org/2000/svg">
<g clip-path="url(#clip0_29_95)">
<path d="M112.483 72.8726L85.6651 27.7012C84.973 26.5666 83.9988 25.6297 82.8369 24.9812C81.6751 24.3328 80.365 23.9948 79.0336 24.0001H65.1718C64.5948 24.095 64.0492 24.3273 63.5813 24.6774C63.1135 25.0274 62.7371 25.4849 62.4842 26.0109L36.6449 79.5318C36.3798 80.0876 36.2608 80.7016 36.2992 81.3159C36.3375 81.9302 36.5319 82.5248 36.864 83.0435C37.2033 83.5776 37.6741 84.016 38.2316 84.317C38.789 84.618 39.4144 84.7715 40.0482 84.7629C40.6154 84.7641 41.1749 84.6329 41.6821 84.3799C42.1893 84.1269 42.6302 83.759 42.9696 83.3058C45.9606 79.3401 49.8445 76.1318 54.3077 73.9397C58.7709 71.7477 63.6883 70.6334 68.6629 70.6869C76.6192 70.6319 84.3163 73.5062 90.2808 78.7595C91.7755 80.0751 93.1312 81.5399 94.3269 83.1309C94.6474 83.562 95.0602 83.9164 95.5352 84.1685C96.0102 84.4205 96.5355 84.5639 97.073 84.5881C97.2284 84.6026 97.3849 84.6026 97.5404 84.5881H105.779C107.161 84.5877 108.518 84.2211 109.711 83.5257C110.904 82.8303 111.891 81.8311 112.57 80.6305C113.249 79.4298 113.596 78.0706 113.576 76.6922C113.555 75.3137 113.168 73.9654 112.454 72.7852L112.483 72.8726ZM68.6629 63.4012C62.3508 63.3945 56.1241 64.8563 50.4775 67.6706L66.0921 35.3512L84.5258 66.6069C79.5082 64.4846 74.1128 63.3943 68.6629 63.4012ZM106.246 77.1421C106.204 77.2208 106.141 77.2859 106.063 77.3298C105.986 77.3737 105.897 77.3945 105.808 77.3898H99.3516L72.1831 31.2566H79.0482C79.1317 31.2443 79.217 31.2556 79.2944 31.289C79.3718 31.3225 79.4384 31.3769 79.4864 31.4461L106.304 76.6175C106.349 76.7006 106.367 76.7952 106.357 76.8888C106.346 76.9825 106.308 77.0708 106.246 77.1421Z" fill="#282B52"/>
<path d="M24.8112 125.082L23.5843 121.366H16.6753L15.3461 125.038H10L18.764 104.128H22.6202L30.3764 125.082H24.8112ZM18.0775 117.548H22.2697L20.2539 111.516L18.0775 117.548Z" fill="#282B52"/>
<path d="M37.1247 110.977C37.4852 110.323 38.0073 109.773 38.6414 109.377C39.2755 108.982 40.0004 108.755 40.7472 108.718C41.4839 108.716 42.2138 108.859 42.8944 109.141L41.6966 113.133C41.2446 112.901 40.7446 112.776 40.236 112.769C39.6969 112.775 39.1673 112.911 38.6918 113.165C38.2164 113.418 37.8092 113.782 37.5045 114.226V125.067H32.5966V109.039H36.6573L37.1247 110.977Z" fill="#282B52"/>
<path d="M53.4404 125.082L50.0663 119.588L48.8685 121.046V125.14H43.9607V102.686H48.8101V115.042L53.5281 109.068H58.9472L53.2652 115.829L59.3708 125.082H53.4404Z" fill="#282B52"/>
<path d="M70.9247 125.082L70.4865 123.829C69.9477 124.394 69.2888 124.831 68.5583 125.108C67.8277 125.386 67.0441 125.496 66.2652 125.431C63.3438 125.431 60.4225 123.523 60.4225 120.273C60.4225 116.383 64.1034 115.159 67.3753 115.159C68.3002 115.169 69.2211 115.282 70.1214 115.494V115.377C70.1214 113.527 69.4056 112.361 67.2 112.361C65.5264 112.435 63.8943 112.904 62.4382 113.731L61.182 110.423C63.3872 109.323 65.8153 108.739 68.2809 108.718C72.6629 108.718 74.9854 111.312 74.9854 115.494V125.082H70.9247ZM70.1506 118.204C69.5238 118.049 68.8824 117.961 68.2371 117.942C66.7764 117.942 65.1843 118.568 65.1843 120.273C65.1974 120.541 65.2633 120.804 65.3784 121.047C65.4935 121.289 65.6553 121.507 65.8548 121.687C66.0543 121.867 66.2874 122.006 66.5407 122.096C66.7941 122.186 67.0628 122.225 67.3315 122.211C67.8487 122.212 68.3607 122.109 68.8374 121.909C69.3141 121.708 69.7457 121.415 70.1067 121.045L70.1506 118.204Z" fill="#282B52"/>
<path d="M94.3685 125.082H90.3079L89.8258 123.173C89.2594 123.918 88.5185 124.514 87.6681 124.908C86.8176 125.301 85.8834 125.481 84.9472 125.432C80.8135 125.432 77.6438 121.643 77.6438 117.009C77.6438 112.376 80.7843 108.718 84.9472 108.718C85.7939 108.694 86.6364 108.847 87.421 109.165C88.2056 109.484 88.9151 109.962 89.5045 110.569V102.686H94.3393L94.3685 125.082ZM86.1449 112.769C83.7202 112.769 82.5809 115.071 82.5809 117.14C82.4686 117.995 82.6539 118.862 83.1058 119.596C83.5577 120.33 84.2487 120.887 85.0632 121.174C85.8777 121.461 86.7662 121.46 87.58 121.171C88.3938 120.883 89.0835 120.324 89.5337 119.588V114.299C89.1242 113.802 88.6056 113.405 88.018 113.14C87.4304 112.875 86.7896 112.748 86.1449 112.769Z" fill="#282B52"/>
<path d="M98.1663 107.159V103.341H103.001V107.159H98.1663ZM98.1663 125.082V109.053H103.001V125.082H98.1663Z" fill="#282B52"/>
<path d="M116.206 125.082L112.831 119.588L111.634 121.046V125.14H106.77V102.686H111.619V115.042L116.352 109.068H121.771L115.928 115.829L122.034 125.082H116.206Z" fill="#282B52"/>
<path d="M139.24 117.082C139.258 118.757 138.776 120.4 137.855 121.801C136.935 123.202 135.618 124.299 134.072 124.952C132.525 125.605 130.819 125.785 129.17 125.469C127.521 125.153 126.003 124.355 124.81 123.177C123.616 121.998 122.8 120.493 122.466 118.851C122.132 117.209 122.295 115.505 122.933 113.956C123.572 112.406 124.658 111.081 126.053 110.149C127.448 109.216 129.089 108.718 130.769 108.718C131.884 108.68 132.995 108.87 134.035 109.276C135.074 109.681 136.019 110.295 136.812 111.078C137.606 111.861 138.23 112.797 138.648 113.83C139.065 114.862 139.267 115.969 139.24 117.082ZM130.769 112.711C128.607 112.711 127.205 114.576 127.205 117.082C127.205 119.588 128.665 121.454 130.769 121.454C132.872 121.454 134.333 119.603 134.333 117.082C134.333 114.561 132.916 112.769 130.769 112.769V112.711Z" fill="#282B52"/>
</g>
<defs>
<clipPath id="clip0_29_95">
<rect width="130" height="102" fill="white" transform="translate(10 24)"/>
</clipPath>
</defs>
</svg>
