<svg width="150" height="150" viewBox="0 0 150 150" fill="none" xmlns="http://www.w3.org/2000/svg">
<g clip-path="url(#clip0_29_96)">
<g clip-path="url(#clip1_29_96)">
<path d="M62.4 73.2201C62.1524 72.9777 61.9586 72.686 61.8311 72.3638C61.7036 72.0416 61.6453 71.6962 61.66 71.3501V54.6501H71.25C72.7505 54.5717 74.2326 55.0093 75.45 55.8901C75.9556 56.2809 76.3601 56.7873 76.6298 57.3666C76.8995 57.946 77.0264 58.5816 77 59.2201V60.6001C76.9991 61.21 76.8407 61.8094 76.54 62.3401C76.239 62.8944 75.7976 63.36 75.26 63.6901C76.1065 63.9717 76.8509 64.497 77.4 65.2001C77.9307 65.8639 78.2168 66.6902 78.21 67.5401V69.0001C78.239 69.6868 78.1056 70.3707 77.8207 70.9963C77.5357 71.6218 77.1072 72.1713 76.57 72.6001C75.2977 73.548 73.7344 74.0219 72.15 73.9401H64.33C63.9765 73.9555 63.6234 73.8998 63.2919 73.7761C62.9603 73.6524 62.657 73.4633 62.4 73.2201ZM71.25 62.6401C71.515 62.6507 71.7793 62.6055 72.0257 62.5073C72.272 62.409 72.495 62.2601 72.68 62.0701C72.8669 61.8693 73.0119 61.6331 73.1063 61.3756C73.2008 61.118 73.2428 60.8441 73.23 60.5701V59.6401C73.2387 59.4036 73.1906 59.1685 73.0896 58.9545C72.9887 58.7405 72.838 58.5538 72.65 58.4101C72.1974 58.1042 71.6548 57.9597 71.11 58.0001H65.46V62.6801L71.25 62.6401ZM71.91 70.6401C72.5681 70.6791 73.222 70.5112 73.78 70.1601C73.9964 70.0057 74.1703 69.7992 74.2857 69.5597C74.401 69.3202 74.4541 69.0555 74.44 68.7901V67.5701C74.451 67.3232 74.4043 67.0772 74.3036 66.8515C74.2029 66.6259 74.051 66.4268 73.86 66.2701C73.4265 65.9181 72.8776 65.7399 72.32 65.7701H65.46V70.6201L71.91 70.6401Z" fill="#E55E76"/>
<path d="M81.4 73.2299C81.1534 72.9893 80.9608 72.6991 80.835 72.3784C80.7091 72.0577 80.6529 71.714 80.67 71.3699V54.6499H84.47V70.6499H94.94V73.9599H83.34C82.9843 73.9737 82.6294 73.9162 82.2963 73.7908C81.9631 73.6655 81.6584 73.4748 81.4 73.2299Z" fill="#E55E76"/>
<path d="M99.11 73.23C98.0149 72.6346 97.1154 71.7351 96.52 70.64C95.8878 69.4497 95.5711 68.1174 95.6 66.77V61.77C95.5711 60.4226 95.8878 59.0902 96.52 57.9C97.1208 56.8089 98.0189 55.9108 99.11 55.31C100.294 54.679 101.619 54.3623 102.96 54.39H105.88C107.218 54.3613 108.54 54.6782 109.72 55.31C110.811 55.9108 111.709 56.8089 112.31 57.9C112.946 59.0886 113.263 60.4221 113.23 61.77V66.77C113.263 68.1178 112.946 69.4513 112.31 70.64C111.715 71.7351 110.815 72.6346 109.72 73.23C108.541 73.8648 107.219 74.1851 105.88 74.16H103C101.645 74.191 100.305 73.8706 99.11 73.23ZM105.88 70.79C106.368 70.8085 106.854 70.7143 107.299 70.5149C107.745 70.3155 108.139 70.0161 108.45 69.64C109.134 68.7934 109.49 67.7279 109.45 66.64V62C109.491 60.9118 109.136 59.8456 108.45 59C108.139 58.6226 107.746 58.3217 107.3 58.1206C106.854 57.9195 106.369 57.8235 105.88 57.84H103C102.503 57.8164 102.008 57.909 101.553 58.1103C101.098 58.3117 100.697 58.6163 100.38 59C99.6979 59.8478 99.343 60.9124 99.38 62V66.63C99.3448 67.7172 99.6995 68.7813 100.38 69.63C100.697 70.0136 101.098 70.3182 101.553 70.5196C102.008 70.721 102.503 70.8135 103 70.79H105.88Z" fill="#E55E76"/>
<path d="M118.93 73.25C117.861 72.6546 116.991 71.7571 116.43 70.67C115.827 69.4813 115.524 68.1627 115.55 66.83V61.76C115.519 60.4243 115.829 59.1028 116.45 57.92C117.026 56.8268 117.914 55.929 119 55.34C120.161 54.7162 121.463 54.4027 122.78 54.43H125.7C126.969 54.4023 128.224 54.7055 129.34 55.31C130.371 55.8855 131.217 56.7421 131.78 57.78C132.376 58.9136 132.675 60.1795 132.65 61.46H128.9C128.943 60.492 128.622 59.5432 128 58.8C127.712 58.4708 127.355 58.2101 126.953 58.0371C126.552 57.864 126.117 57.783 125.68 57.8H122.76C122.285 57.7815 121.813 57.8761 121.381 58.0761C120.95 58.276 120.573 58.5755 120.28 58.95C119.625 59.8083 119.295 60.8714 119.35 61.95V66.7C119.3 67.7733 119.617 68.8316 120.25 69.7C120.533 70.067 120.899 70.3618 121.318 70.5599C121.737 70.7581 122.197 70.8541 122.66 70.84H125.66C126.114 70.8388 126.561 70.7326 126.967 70.5296C127.373 70.3266 127.727 70.0324 128 69.67C128.651 68.8099 128.977 67.7472 128.92 66.67H132.67C132.696 68.0315 132.394 69.3794 131.79 70.6C131.229 71.6914 130.369 72.6003 129.31 73.22C128.179 73.8463 126.903 74.1636 125.61 74.14H122.61C121.327 74.1642 120.06 73.8577 118.93 73.25Z" fill="#E55E76"/>
<path d="M147.07 73.9399L140.71 65.8399L138.86 67.8399V73.9599H135.06V54.6499H138.86V62.9999L146.52 54.6799H151.2L143.27 63.1399L151.7 73.9699L147.07 73.9399Z" fill="#E55E76"/>
<path d="M62.7 105.53C62.1106 104.898 61.656 104.153 61.3638 103.34C61.0715 102.527 60.9477 101.662 61 100.8H64.74C64.6998 101.614 64.9595 102.415 65.47 103.05C65.7267 103.319 66.0379 103.531 66.3827 103.67C66.7276 103.81 67.0982 103.875 67.47 103.86H70.53C71.2328 103.895 71.9298 103.717 72.53 103.35C72.7601 103.208 72.9499 103.009 73.0812 102.773C73.2125 102.536 73.281 102.27 73.28 102V101.07C73.28 100.17 72.6133 99.61 71.28 99.39L66.21 98.53C64.8297 98.3801 63.5231 97.831 62.45 96.95C62.0311 96.5732 61.6996 96.1096 61.4785 95.5914C61.2574 95.0732 61.1521 94.5131 61.17 93.95V92.39C61.167 91.4669 61.4577 90.5669 62 89.82C62.5551 89.0493 63.3182 88.4527 64.2 88.1C65.2646 87.6746 66.4038 87.4672 67.55 87.49H70.67C71.7688 87.4672 72.8556 87.7217 73.83 88.23C74.74 88.7025 75.4936 89.4284 76 90.32C76.5209 91.2688 76.783 92.3379 76.76 93.42H73C73.0339 92.7425 72.8087 92.0774 72.37 91.56C72.1582 91.3275 71.898 91.1444 71.6077 91.0234C71.3175 90.9025 71.0042 90.8467 70.69 90.86H67.55C66.8926 90.8249 66.2412 91 65.69 91.36C65.4716 91.5032 65.2928 91.6993 65.1705 91.9301C65.0481 92.1608 64.986 92.4188 64.99 92.68V93.42C64.99 94.34 65.63 94.91 66.89 95.13L71.89 96.01C73.2798 96.1911 74.5991 96.7285 75.72 97.57C76.1451 97.9176 76.4851 98.3578 76.7138 98.857C76.9426 99.3561 77.0542 99.901 77.04 100.45V102.26C77.0517 103.187 76.768 104.094 76.23 104.85C75.659 105.625 74.8882 106.229 74 106.6C72.9226 107.03 71.77 107.241 70.61 107.22H67.44C66.5772 107.269 65.7133 107.144 64.8993 106.854C64.0852 106.564 63.3375 106.114 62.7 105.53Z" fill="#E55E76"/>
<path d="M82.87 106.35C81.8501 105.787 81.0162 104.939 80.47 103.91C79.8819 102.792 79.5893 101.543 79.62 100.28V87.71H83.42V100.17C83.3693 101.132 83.6676 102.08 84.26 102.84C84.5228 103.165 84.8574 103.424 85.2374 103.598C85.6174 103.771 86.0325 103.854 86.45 103.84H89.37C89.7933 103.854 90.2143 103.771 90.6008 103.598C90.9873 103.425 91.329 103.166 91.6 102.84C92.1996 102.083 92.505 101.135 92.46 100.17V87.71H96.26V100.28C96.2824 101.543 95.9866 102.791 95.4 103.91C94.8539 104.939 94.0199 105.787 93 106.35C91.8928 106.949 90.6485 107.249 89.39 107.22H86.47C85.2142 107.253 83.9721 106.953 82.87 106.35Z" fill="#E55E76"/>
<path d="M99.57 87.7099H109.82C111.274 87.6493 112.7 88.1303 113.82 89.0599C114.32 89.5055 114.716 90.0551 114.98 90.6702C115.244 91.2852 115.371 91.9508 115.35 92.6199V94.5499C115.364 95.4485 115.075 96.3256 114.53 97.0399C113.923 97.797 113.105 98.3573 112.18 98.6499V98.7099C112.726 99.0335 113.194 99.4741 113.55 99.9999C113.929 100.653 114.231 101.347 114.45 102.07L116 107H112.06L110.6 102.42C110.43 101.754 110.085 101.147 109.6 100.66C109.172 100.269 108.609 100.061 108.03 100.08H103.38V107H99.58L99.57 87.7099ZM109.1 96.8099C109.763 96.8424 110.414 96.6207 110.92 96.1899C111.138 95.9816 111.309 95.7296 111.423 95.4505C111.537 95.1713 111.59 94.8712 111.58 94.5699V92.7799C111.59 92.5435 111.551 92.3076 111.465 92.0872C111.379 91.8668 111.248 91.6668 111.08 91.4999C110.902 91.3369 110.694 91.2106 110.468 91.1283C110.241 91.0459 110.001 91.0091 109.76 91.0199H103.37V96.8099H109.1Z" fill="#E55E76"/>
<path d="M123.29 105.24L116.65 87.71H120.65L125.72 102.18H125.77L130.87 87.71H134.81L127.37 107H125.58C125.058 107 124.55 106.827 124.136 106.509C123.722 106.191 123.424 105.745 123.29 105.24Z" fill="#E55E76"/>
<path d="M137.34 106.28C137.092 106.038 136.899 105.746 136.771 105.424C136.644 105.102 136.585 104.756 136.6 104.41V87.71H151.31V91H140.4V95.47H150.49V98.78H140.4V103.68H151.31V107H139.31C138.95 107.02 138.59 106.966 138.251 106.842C137.912 106.719 137.602 106.527 137.34 106.28Z" fill="#E55E76"/>
<path d="M15.89 52.3899H-1.24V69.5199H15.89V52.3899Z" fill="#E55E76"/>
<path d="M15.89 71.1799H-1.24V88.3099H15.89V71.1799Z" fill="#E55E76"/>
<path d="M15.89 89.9399H-1.24V107.07H15.89V89.9399Z" fill="#E55E76"/>
<path d="M34.64 43H17.51V60.13H34.64V43Z" fill="#E55E76"/>
<path d="M34.64 61.79H17.51V78.92H34.64V61.79Z" fill="#E55E76"/>
<path d="M34.64 80.54H17.51V97.67H34.64V80.54Z" fill="#E55E76"/>
<path d="M53.4 52.3899H36.27V69.5199H53.4V52.3899Z" fill="#E55E76"/>
<path d="M53.4 71.1799H36.27V88.3099H53.4V71.1799Z" fill="#E55E76"/>
<path d="M53.4 89.9399H36.27V107.07H53.4V89.9399Z" fill="#E55E76"/>
</g>
</g>
<defs>
<clipPath id="clip0_29_96">
<rect width="150" height="150" fill="white"/>
</clipPath>
<clipPath id="clip1_29_96">
<rect width="190.21" height="64.23" fill="white" transform="translate(-20 43)"/>
</clipPath>
</defs>
</svg>
