<svg width="150" height="150" viewBox="0 0 150 150" fill="none" xmlns="http://www.w3.org/2000/svg">
<path d="M112.442 35.3754L75.5856 14.176L75.3677 14.0677C75.2503 14.0231 75.1257 14.0002 75 14V14C74.8788 14.0015 74.7589 14.0244 74.6459 14.0677C74.5785 14.091 74.5144 14.1229 74.4552 14.1624L37.572 35.1453C37.3973 35.2334 37.2518 35.3696 37.1528 35.5376C37.0538 35.7056 37.0055 35.8983 37.0136 36.0929C37.0136 36.0929 37.0136 36.0929 37.0136 36.1741V78.3564C37.0215 78.5511 37.0779 78.7409 37.1777 78.9086C37.2776 79.0764 37.4177 79.2169 37.5857 79.3175L74.3598 100.422C74.5452 100.559 74.7691 100.635 75 100.639C75.1333 100.642 75.265 100.609 75.3813 100.544C75.4971 100.499 75.6069 100.44 75.7082 100.368L112.183 79.6018C112.309 79.5754 112.429 79.5217 112.532 79.4445C112.636 79.3674 112.721 79.2686 112.782 79.1551C112.881 78.9958 112.937 78.8141 112.946 78.6271C112.946 78.6271 112.946 78.5594 112.946 78.5188V36.6344C113.016 36.3988 113.004 36.1466 112.913 35.9183C112.821 35.69 112.655 35.4988 112.442 35.3754ZM75 98.2291L40.3641 78.3293L49.7075 72.9956L74.4279 87.2098C74.6008 87.3151 74.7975 87.3756 75 87.3858C75.199 87.3659 75.3953 87.3251 75.5856 87.2639C75.6831 87.2117 75.7707 87.143 75.8444 87.0609L100.17 73.1851L109.54 78.6L75 98.2291ZM39.3018 36.7562L73.8559 17.073V27.7539L49.19 41.8327L49.0946 41.9004C48.8754 42.0672 48.7253 42.308 48.6724 42.5773C48.6658 42.6176 48.6658 42.6588 48.6724 42.6991C48.6649 42.7302 48.6649 42.7627 48.6724 42.7939V71.0191L39.3018 76.2716V36.7562ZM87.258 50.3071V63.1269L76.1032 56.7373V43.9445L87.258 50.3071ZM75 71.4659L63.8179 65.0221L75 58.6731L86.2093 65.1033L75 71.4659ZM73.8695 56.7102L62.6602 63.0592V50.2529L73.8695 43.8768V56.7102ZM50.9333 44.7974L55.5778 47.5048L60.3584 50.2123V65.0357C60.3665 65.2322 60.4228 65.4238 60.5225 65.5937C60.6222 65.7636 60.7623 65.9066 60.9305 66.0103L73.8695 73.3882V84.2993L50.9197 71.0868L50.9333 44.7974ZM76.1577 73.4559L89.0423 66.1186C89.1942 66.0325 89.323 65.9112 89.4178 65.7651C89.5127 65.6191 89.5707 65.4524 89.5871 65.2793C89.5871 65.2793 89.5871 65.2793 89.5871 65.1981V50.3612L99.1211 44.9463V71.2087L76.1577 84.2993V73.4559ZM88.4158 48.3983L75.858 41.1423C75.7002 41.0005 75.5076 40.9024 75.2996 40.858H75.177H75.0272C74.8097 40.8538 74.596 40.9151 74.4143 41.034L61.6115 48.3171L52.0774 42.9022L75 29.7168L97.9634 42.9563L88.4158 48.3983ZM101.423 71.2899V42.8615C101.423 42.8615 101.423 42.7803 101.423 42.7397C101.4 42.5875 101.349 42.4407 101.273 42.3065C101.216 42.2206 101.148 42.1431 101.069 42.0764C101.069 42.0764 100.878 42.0222 100.878 42.0087V41.941L76.1577 27.7539V17.1542L110.657 37.0134V76.6101L101.423 71.2899Z" fill="black"/>
<path d="M50.838 123.002C50.838 119.916 48.8495 118.021 45.6079 118.021H38.3893V136.973H46.2344C46.9908 137.012 47.7469 136.89 48.4517 136.615C49.1566 136.339 49.7938 135.917 50.3204 135.376C51.3223 134.324 51.8699 132.925 51.8459 131.477C51.834 130.468 51.5263 129.485 50.9606 128.647C50.4443 127.793 49.6299 127.157 48.6724 126.861C49.38 126.506 49.9646 125.949 50.3506 125.262C50.7366 124.574 50.9064 123.787 50.838 123.002ZM41.1677 120.566H45.3219C45.6723 120.517 46.0293 120.546 46.367 120.651C46.7048 120.756 47.015 120.934 47.2754 121.172C47.5358 121.41 47.7399 121.703 47.8731 122.028C48.0064 122.354 48.0653 122.705 48.0459 123.057C48.0841 123.396 48.05 123.74 47.9457 124.066C47.8415 124.392 47.6694 124.692 47.4408 124.947C47.2122 125.203 46.932 125.407 46.6186 125.548C46.3051 125.689 45.9654 125.762 45.6215 125.764H41.1677V120.566ZM46.0437 128.228C46.4586 128.227 46.8681 128.321 47.2411 128.501C47.614 128.682 47.9406 128.945 48.1957 129.27C48.7295 129.873 49.029 130.646 49.0401 131.45C49.0567 131.843 48.9928 132.236 48.8522 132.604C48.7117 132.972 48.4974 133.308 48.2223 133.592C47.9473 133.875 47.6172 134.1 47.2521 134.253C46.887 134.406 46.4944 134.484 46.0982 134.482H41.1677V128.228H46.0437ZM64.6624 129.852C67.9312 129.554 69.5384 127.145 69.5384 124.004C69.5781 122.466 69.0555 120.965 68.0674 119.781C67.5424 119.183 66.886 118.713 66.1491 118.408C65.4123 118.103 64.6146 117.97 63.8179 118.021H56.4631V136.973H59.1871V129.988H61.4753L66.3376 137H69.6746L64.6624 129.852ZM63.7498 120.566C67.6315 120.336 67.8358 127.673 63.6136 127.416H59.2416V120.566H63.7498ZM74.3054 137H77.0294V118.048H74.3054V137ZM95.3075 123.002C95.3075 119.916 93.319 118.021 90.0774 118.021H82.8588V136.973H90.7039C91.4602 137.012 92.2161 136.889 92.9208 136.613C93.6255 136.338 94.2628 135.916 94.79 135.376C95.8035 134.32 96.3566 132.909 96.329 131.45C96.3078 130.449 95.9956 129.476 95.4301 128.647C94.9139 127.793 94.0995 127.157 93.1419 126.861C93.8484 126.505 94.4318 125.948 94.8176 125.26C95.2035 124.573 95.374 123.787 95.3075 123.002ZM85.6373 120.566H89.7233C90.0733 120.52 90.4293 120.551 90.7659 120.656C91.1026 120.762 91.4117 120.94 91.6716 121.178C91.9314 121.415 92.1356 121.707 92.2696 122.031C92.4037 122.356 92.4643 122.706 92.4473 123.057C92.4855 123.396 92.4514 123.74 92.3472 124.066C92.2429 124.392 92.0709 124.692 91.8422 124.947C91.6136 125.203 91.3334 125.407 91.02 125.548C90.7066 125.689 90.3669 125.762 90.0229 125.764H85.6373V120.566ZM90.4997 128.228C90.9168 128.225 91.329 128.318 91.7045 128.498C92.08 128.679 92.4087 128.943 92.6652 129.27C93.199 129.873 93.4985 130.646 93.5097 131.45C93.5243 131.843 93.4591 132.235 93.3178 132.602C93.1765 132.969 92.9622 133.305 92.6875 133.588C92.4128 133.871 92.0836 134.096 91.7193 134.25C91.3551 134.403 90.9634 134.482 90.5678 134.482H85.6373V128.228H90.4997ZM100.878 137H112.523V134.482H103.67V129.067H111.216V126.36H103.67V120.566H112.305V118.021H100.878V137Z" fill="black"/>
</svg>
