<svg width="117" height="19" viewBox="0 0 117 19" fill="none" xmlns="http://www.w3.org/2000/svg">
<path d="M13.6406 5.27344H9.96094L7.28906 14.4141H7.14844L4.47656 5.27344H0.820312L5.27344 18H9.16406L13.6406 5.27344ZM15.3281 18H18.7969V5.27344H15.3281V18ZM15.1641 1.85156C15.1641 2.8125 16.0195 3.60938 17.0625 3.60938C18.0938 3.60938 18.9492 2.8125 18.9375 1.85156C18.9492 0.867188 18.0938 0.0820312 17.0625 0.0703125C16.0195 0.0820312 15.1641 0.867188 15.1641 1.85156ZM27.2578 18.2578C30.3984 18.2461 32.5078 16.7227 33 14.3672H29.6953C29.3555 15.1289 28.5117 15.6445 27.3281 15.6562C25.5352 15.6445 24.3984 14.4609 24.3984 12.5391H33.0938V11.5547C33.0938 7.21875 30.457 5.10938 27.1172 5.10938C23.3906 5.10938 20.9648 7.76953 20.9766 11.6953C20.9648 15.7266 23.3555 18.2461 27.2578 18.2578ZM24.3984 10.3594C24.4688 8.89453 25.5938 7.69922 27.1875 7.71094C28.7344 7.69922 29.8008 8.8125 29.8125 10.3594H24.3984ZM37.6875 18H41.3672L43.5703 9.91406H43.7344L45.9375 18H49.5938L53.0859 5.27344H49.5703L47.6016 13.8281H47.4844L45.375 5.27344H41.9297L39.8438 13.875H39.7266L37.7344 5.27344H34.2188L37.6875 18ZM60.375 18H63.8438V10.3594C63.832 8.91797 64.7461 7.96875 65.9297 7.96875C67.1133 7.96875 67.9102 8.77734 67.8984 10.0312V18H71.2734V10.2188C71.2617 8.87109 72.0352 7.96875 73.3359 7.96875C74.4727 7.96875 75.3398 8.67188 75.3281 10.125V18H78.7969V9.44531C78.7969 6.66797 77.1445 5.10938 74.7891 5.10938C72.9258 5.10938 71.4727 6.05859 70.9453 7.5H70.8281C70.4062 6.03516 69.1055 5.10938 67.3594 5.10938C65.6484 5.10938 64.3594 6.01172 63.8203 7.5H63.6797V5.27344H60.375V18ZM87.1875 18.2578C91.043 18.2461 93.4336 15.6094 93.4453 11.6719C93.4336 7.74609 91.043 5.10938 87.1875 5.10938C83.3438 5.10938 80.9414 7.74609 80.9531 11.6719C80.9414 15.6094 83.3438 18.2461 87.1875 18.2578ZM84.4688 11.6719C84.4688 9.43359 85.3945 7.75781 87.2109 7.75781C88.9805 7.75781 89.918 9.43359 89.9062 11.6719C89.918 13.8984 88.9805 15.5508 87.2109 15.5625C85.3945 15.5508 84.4688 13.8984 84.4688 11.6719ZM95.625 18H99.0938V10.7578C99.082 9.19922 100.242 8.10938 101.812 8.10938C102.293 8.10938 102.961 8.19141 103.289 8.29688V5.20312C102.984 5.13281 102.539 5.08594 102.188 5.08594C100.758 5.08594 99.5742 5.91797 99.1172 7.47656H98.9766V5.27344H95.625V18ZM110.344 18.2578C113.484 18.2461 115.594 16.7227 116.086 14.3672H112.781C112.441 15.1289 111.598 15.6445 110.414 15.6562C108.621 15.6445 107.484 14.4609 107.484 12.5391H116.18V11.5547C116.18 7.21875 113.543 5.10938 110.203 5.10938C106.477 5.10938 104.051 7.76953 104.062 11.6953C104.051 15.7266 106.441 18.2461 110.344 18.2578ZM107.484 10.3594C107.555 8.89453 108.68 7.69922 110.273 7.71094C111.82 7.69922 112.887 8.8125 112.898 10.3594H107.484Z" fill="#99F100"/>
</svg>
