<svg width="130" height="102" viewBox="0 0 130 102" fill="none" xmlns="http://www.w3.org/2000/svg">
<g clip-path="url(#clip0_189_408)">
<path d="M102.483 48.8725L75.6652 3.70108C74.9731 2.56652 73.9989 1.62958 72.837 0.981124C71.6752 0.332665 70.3651 -0.00532096 69.0337 -6.16161e-05H55.1719C54.5949 0.0948599 54.0493 0.327195 53.5814 0.677249C53.1136 1.0273 52.7372 1.48475 52.4843 2.01079L26.645 55.5317C26.3799 56.0875 26.2609 56.7014 26.2993 57.3158C26.3376 57.9301 26.532 58.5246 26.8641 59.0434C27.2034 59.5775 27.6742 60.0159 28.2317 60.3169C28.7891 60.6179 29.4145 60.7714 30.0483 60.7628C30.6155 60.7639 31.175 60.6328 31.6822 60.3798C32.1894 60.1268 32.6303 59.7589 32.9697 59.3057C35.9607 55.34 39.8446 52.1317 44.3078 49.9396C48.771 47.7476 53.6884 46.6333 58.663 46.6868C66.6193 46.6318 74.3164 49.5061 80.2809 54.7594C81.7756 56.075 83.1313 57.5398 84.327 59.1308C84.6475 59.5619 85.0603 59.9163 85.5353 60.1684C86.0103 60.4204 86.5356 60.5637 87.0731 60.5879C87.2285 60.6025 87.385 60.6025 87.5405 60.5879H95.7787C97.1606 60.5876 98.5177 60.2209 99.711 59.5256C100.904 58.8302 101.891 57.831 102.57 56.6303C103.249 55.4296 103.596 54.0705 103.576 52.6921C103.555 51.3136 103.168 49.9653 102.454 48.7851L102.483 48.8725ZM58.663 39.4011C52.3509 39.3944 46.1242 40.8562 40.4776 43.6705L56.0922 11.3511L74.5259 42.6068C69.5083 40.4845 64.1129 39.3942 58.663 39.4011ZM96.2461 53.1419C96.2044 53.2207 96.141 53.2858 96.0633 53.3297C95.9856 53.3736 95.897 53.3944 95.8079 53.3897H89.3517L62.1832 7.25652H69.0483C69.1318 7.24422 69.2171 7.25544 69.2945 7.28891C69.3719 7.32238 69.4385 7.37677 69.4865 7.44594L96.3045 52.6174C96.3491 52.7005 96.3673 52.7951 96.3569 52.8887C96.3464 52.9823 96.3078 53.0706 96.2461 53.1419Z" fill="white"/>
<path d="M14.8112 101.082L13.5843 97.3662H6.67528L5.34607 101.038H0L8.76404 80.1282H12.6202L20.3764 101.082H14.8112ZM8.07753 93.5485H12.2697L10.2539 87.5159L8.07753 93.5485Z" fill="white"/>
<path d="M27.1248 86.9766C27.4853 86.3231 28.0074 85.7725 28.6414 85.3772C29.2755 84.9818 30.0004 84.7549 30.7472 84.718C31.484 84.7157 32.2138 84.8594 32.8944 85.1406L31.6967 89.1332C31.2446 88.9006 30.7446 88.7759 30.236 88.7689C29.6969 88.7753 29.1673 88.9111 28.6919 89.1647C28.2165 89.4183 27.8092 89.7824 27.5045 90.226V101.067H22.5967V85.0386H26.6574L27.1248 86.9766Z" fill="white"/>
<path d="M43.4405 101.082L40.0663 95.5884L38.8686 97.0455V101.14H33.9607V78.6855H38.8101V91.0421L43.5281 85.0678H48.9472L43.2652 91.829L49.3708 101.082H43.4405Z" fill="white"/>
<path d="M60.9246 101.082L60.4864 99.8286C59.9476 100.394 59.2887 100.831 58.5582 101.108C57.8276 101.386 57.044 101.496 56.2651 101.431C53.3437 101.431 50.4224 99.5226 50.4224 96.2732C50.4224 92.3826 54.1033 91.1586 57.3752 91.1586C58.3001 91.1695 59.221 91.2819 60.1213 91.4937V91.3772C60.1213 89.5266 59.4055 88.3609 57.1999 88.3609C55.5263 88.4348 53.8942 88.9042 52.4381 89.7306L51.1819 86.4229C53.3871 85.3226 55.8152 84.7394 58.2808 84.718C62.6628 84.718 64.9853 87.3117 64.9853 91.4937V101.082H60.9246ZM60.1505 94.204C59.5237 94.0492 58.8823 93.9613 58.237 93.9417C56.7763 93.9417 55.1842 94.5683 55.1842 96.2732C55.1973 96.5412 55.2632 96.804 55.3783 97.0465C55.4934 97.289 55.6552 97.5066 55.8547 97.6866C56.0542 97.8666 56.2873 98.0056 56.5406 98.0956C56.794 98.1856 57.0627 98.2249 57.3314 98.2112C57.8486 98.2117 58.3606 98.1088 58.8373 97.9086C59.314 97.7084 59.7456 97.4149 60.1066 97.0454L60.1505 94.204Z" fill="white"/>
<path d="M84.3685 101.082H80.3079L79.8258 99.173C79.2594 99.9183 78.5185 100.514 77.6681 100.908C76.8176 101.301 75.8834 101.481 74.9472 101.432C70.8135 101.432 67.6438 97.643 67.6438 93.0093C67.6438 88.3756 70.7842 84.7181 74.9472 84.7181C75.7939 84.6943 76.6364 84.8466 77.421 85.1652C78.2055 85.4838 78.9151 85.9617 79.5045 86.5687V78.6855H84.3393L84.3685 101.082ZM76.1449 88.769C73.7202 88.769 72.5809 91.0713 72.5809 93.1404C72.4686 93.9947 72.6539 94.8616 73.1058 95.5959C73.5577 96.3302 74.2487 96.8874 75.0632 97.1742C75.8777 97.4609 76.7662 97.4599 77.58 97.1712C78.3938 96.8825 79.0835 96.3238 79.5337 95.5884V90.299C79.1242 89.8019 78.6056 89.4053 78.018 89.14C77.4304 88.8747 76.7896 88.7478 76.1449 88.769Z" fill="white"/>
<path d="M88.1663 83.159V79.3413H93.0011V83.159H88.1663ZM88.1663 101.082V85.0533H93.0011V101.082H88.1663Z" fill="white"/>
<path d="M106.206 101.082L102.832 95.5884L101.634 97.0455V101.14H96.7698V78.6855H101.619V91.0421L106.352 85.0678H111.771L105.928 91.829L112.034 101.082H106.206Z" fill="white"/>
<path d="M129.24 93.0821C129.258 94.7573 128.776 96.3998 127.856 97.8011C126.935 99.2024 125.618 100.299 124.072 100.952C122.525 101.605 120.819 101.785 119.17 101.469C117.521 101.153 116.003 100.355 114.81 99.1766C113.616 97.9982 112.8 96.4926 112.466 94.8508C112.132 93.209 112.295 91.5053 112.934 89.9559C113.572 88.4065 114.658 87.0813 116.053 86.1488C117.448 85.2162 119.089 84.7182 120.769 84.7181C121.884 84.6801 122.995 84.8698 124.035 85.2755C125.074 85.6813 126.019 86.2945 126.813 87.0777C127.606 87.8608 128.23 88.7974 128.648 89.8299C129.065 90.8624 129.267 91.9691 129.24 93.0821ZM120.769 88.7107C118.607 88.7107 117.205 90.5759 117.205 93.0821C117.205 95.5884 118.665 97.4536 120.769 97.4536C122.872 97.4536 124.333 95.603 124.333 93.0821C124.333 90.5613 122.916 88.769 120.769 88.769V88.7107Z" fill="white"/>
</g>
<defs>
<clipPath id="clip0_189_408">
<rect width="130" height="102" fill="white"/>
</clipPath>
</defs>
</svg>
