<svg width="150" height="65" viewBox="0 0 150 65" fill="none" xmlns="http://www.w3.org/2000/svg">
<g clip-path="url(#clip0_189_434)">
<path d="M62.3999 30.2199C62.1523 29.9776 61.9585 29.6858 61.831 29.3637C61.7035 29.0415 61.6452 28.6961 61.6599 28.3499V11.6499H71.2499C72.7505 11.5716 74.2326 12.0092 75.4499 12.8899C75.9555 13.2808 76.3601 13.7871 76.6298 14.3665C76.8994 14.9459 77.0264 15.5814 76.9999 16.2199V17.5999C76.9991 18.2099 76.8406 18.8093 76.5399 19.3399C76.2389 19.8943 75.7975 20.3599 75.2599 20.6899C76.1064 20.9716 76.8508 21.4969 77.3999 22.1999C77.9307 22.8638 78.2167 23.6901 78.2099 24.5399V25.9999C78.239 26.6867 78.1056 27.3706 77.8206 27.9961C77.5357 28.6217 77.1072 29.1711 76.5699 29.5999C75.2977 30.5478 73.7344 31.0218 72.1499 30.9399H64.3299C63.9764 30.9554 63.6234 30.8996 63.2918 30.7759C62.9603 30.6523 62.657 30.4632 62.3999 30.2199ZM71.2499 19.6399C71.5149 19.6506 71.7792 19.6053 72.0256 19.5071C72.272 19.4089 72.4949 19.26 72.6799 19.0699C72.8669 18.8691 73.0118 18.633 73.1063 18.3754C73.2007 18.1178 73.2428 17.844 73.2299 17.5699V16.6399C73.2386 16.4035 73.1905 16.1684 73.0896 15.9544C72.9887 15.7404 72.8379 15.5537 72.6499 15.4099C72.1973 15.104 71.6548 14.9596 71.1099 14.9999H65.4599V19.6799L71.2499 19.6399ZM71.9099 27.6399C72.5681 27.6789 73.2219 27.5111 73.7799 27.1599C73.9963 27.0055 74.1702 26.799 74.2856 26.5596C74.401 26.3201 74.4541 26.0554 74.4399 25.7899V24.5699C74.4509 24.3231 74.4042 24.0771 74.3036 23.8514C74.2029 23.6257 74.051 23.4267 73.8599 23.2699C73.4264 22.918 72.8775 22.7397 72.3199 22.7699H65.4599V27.6199L71.9099 27.6399Z" fill="#E55E76"/>
<path d="M81.4 30.23C81.1534 29.9895 80.9608 29.6992 80.835 29.3785C80.7091 29.0579 80.6529 28.7141 80.67 28.37V11.65H84.47V27.65H94.94V30.96H83.34C82.9843 30.9738 82.6294 30.9163 82.2963 30.791C81.9631 30.6656 81.6584 30.4749 81.4 30.23Z" fill="#E55E76"/>
<path d="M99.11 30.23C98.0148 29.6346 97.1153 28.7351 96.52 27.64C95.8878 26.4497 95.5711 25.1174 95.6 23.77V18.77C95.5711 17.4226 95.8878 16.0902 96.52 14.9C97.1208 13.8089 98.0189 12.9108 99.11 12.31C100.293 11.679 101.619 11.3623 102.96 11.39H105.88C107.218 11.3613 108.54 11.6782 109.72 12.31C110.811 12.9108 111.709 13.8089 112.31 14.9C112.946 16.0886 113.263 17.4221 113.23 18.77V23.77C113.263 25.1178 112.946 26.4513 112.31 27.64C111.715 28.7351 110.815 29.6346 109.72 30.23C108.541 30.8648 107.219 31.1851 105.88 31.16H103C101.645 31.191 100.305 30.8706 99.11 30.23ZM105.88 27.79C106.368 27.8085 106.853 27.7143 107.299 27.5149C107.745 27.3155 108.139 27.0161 108.45 26.64C109.134 25.7934 109.49 24.7279 109.45 23.64V19C109.491 17.9118 109.136 16.8456 108.45 16C108.139 15.6226 107.746 15.3217 107.3 15.1206C106.854 14.9195 106.369 14.8235 105.88 14.84H103C102.503 14.8164 102.008 14.909 101.553 15.1103C101.098 15.3117 100.696 15.6163 100.38 16C99.6979 16.8478 99.343 17.9124 99.38 19V23.63C99.3448 24.7172 99.6995 25.7813 100.38 26.63C100.696 27.0136 101.098 27.3182 101.553 27.5196C102.008 27.721 102.503 27.8135 103 27.79H105.88Z" fill="#E55E76"/>
<path d="M118.93 30.25C117.861 29.6546 116.991 28.7571 116.43 27.67C115.827 26.4813 115.524 25.1627 115.55 23.83V18.76C115.519 17.4243 115.829 16.1028 116.45 14.92C117.026 13.8268 117.914 12.929 119 12.34C120.161 11.7162 121.463 11.4027 122.78 11.43H125.7C126.969 11.4023 128.224 11.7055 129.34 12.31C130.371 12.8855 131.217 13.7421 131.78 14.78C132.376 15.9136 132.675 17.1795 132.65 18.46H128.9C128.943 17.492 128.622 16.5432 128 15.8C127.712 15.4708 127.355 15.2101 126.953 15.0371C126.552 14.864 126.117 14.783 125.68 14.8H122.76C122.285 14.7815 121.813 14.8761 121.381 15.0761C120.95 15.276 120.573 15.5755 120.28 15.95C119.624 16.8083 119.295 17.8714 119.35 18.95V23.7C119.3 24.7733 119.617 25.8316 120.25 26.7C120.533 27.067 120.899 27.3618 121.318 27.5599C121.737 27.7581 122.197 27.8541 122.66 27.84H125.66C126.114 27.8388 126.561 27.7326 126.967 27.5296C127.373 27.3266 127.727 27.0324 128 26.67C128.651 25.8099 128.977 24.7472 128.92 23.67H132.67C132.696 25.0315 132.394 26.3794 131.79 27.6C131.229 28.6914 130.369 29.6003 129.31 30.22C128.179 30.8463 126.903 31.1636 125.61 31.14H122.61C121.327 31.1642 120.06 30.8577 118.93 30.25Z" fill="#E55E76"/>
<path d="M147.07 30.94L140.71 22.84L138.86 24.84V30.96H135.06V11.65H138.86V20L146.52 11.68H151.2L143.27 20.14L151.7 30.97L147.07 30.94Z" fill="#E55E76"/>
<path d="M62.6999 62.53C62.1106 61.8981 61.656 61.1529 61.3637 60.3397C61.0714 59.5266 60.9477 58.6625 60.9999 57.8H64.7399C64.6997 58.614 64.9595 59.4146 65.4699 60.05C65.7267 60.3193 66.0378 60.5308 66.3827 60.6704C66.7275 60.8101 67.0982 60.8747 67.4699 60.86H70.5299C71.2327 60.8949 71.9297 60.7171 72.5299 60.35C72.76 60.2079 72.9498 60.0092 73.0811 59.7728C73.2124 59.5365 73.2809 59.2704 73.2799 59V58.07C73.2799 57.17 72.6133 56.61 71.2799 56.39L66.2099 55.53C64.8296 55.3801 63.523 54.831 62.4499 53.95C62.0311 53.5732 61.6995 53.1096 61.4785 52.5914C61.2574 52.0732 61.1521 51.5131 61.1699 50.95V49.39C61.1669 48.4669 61.4576 47.5669 61.9999 46.82C62.555 46.0493 63.3181 45.4527 64.1999 45.1C65.2646 44.6746 66.4037 44.4672 67.5499 44.49H70.6699C71.7687 44.4672 72.8555 44.7217 73.8299 45.23C74.7399 45.7025 75.4936 46.4284 75.9999 47.32C76.5208 48.2688 76.7829 49.3379 76.7599 50.42H72.9999C73.0339 49.7425 72.8086 49.0774 72.3699 48.56C72.1581 48.3275 71.8979 48.1444 71.6077 48.0234C71.3174 47.9025 71.0041 47.8467 70.6899 47.86H67.5499C66.8926 47.8249 66.2411 48 65.6899 48.36C65.4715 48.5032 65.2928 48.6993 65.1704 48.9301C65.048 49.1608 64.9859 49.4188 64.9899 49.68V50.42C64.9899 51.34 65.6299 51.91 66.8899 52.13L71.8899 53.01C73.2797 53.1911 74.5991 53.7285 75.7199 54.57C76.145 54.9176 76.485 55.3578 76.7138 55.857C76.9426 56.3561 77.0541 56.901 77.0399 57.45V59.26C77.0516 60.1874 76.768 61.0945 76.2299 61.85C75.6589 62.6246 74.8881 63.2295 73.9999 63.6C72.9225 64.0304 71.77 64.2412 70.6099 64.22H67.4399C66.5771 64.2686 65.7132 64.1441 64.8992 63.8539C64.0852 63.5637 63.3374 63.1135 62.6999 62.53Z" fill="#E55E76"/>
<path d="M82.8701 63.35C81.8502 62.7869 81.0162 61.9391 80.4701 60.91C79.882 59.7922 79.5894 58.5426 79.6201 57.28V44.71H83.4201V57.17C83.3694 58.1321 83.6677 59.0802 84.2601 59.84C84.5229 60.1647 84.8575 60.424 85.2375 60.5976C85.6175 60.7711 86.0326 60.8541 86.4501 60.84H89.3701C89.7934 60.8542 90.2144 60.7715 90.6009 60.5982C90.9874 60.4248 91.3291 60.1655 91.6001 59.84C92.1997 59.083 92.5051 58.1346 92.4601 57.17V44.71H96.2601V57.28C96.2824 58.5429 95.9867 59.7912 95.4001 60.91C94.854 61.9391 94.02 62.7869 93.0001 63.35C91.8929 63.9489 90.6486 64.2487 89.3901 64.22H86.4701C85.2143 64.2531 83.9722 63.9529 82.8701 63.35Z" fill="#E55E76"/>
<path d="M99.5701 44.7099H109.82C111.275 44.6493 112.7 45.1303 113.82 46.0599C114.32 46.5055 114.716 47.0551 114.98 47.6702C115.244 48.2852 115.371 48.9508 115.35 49.6199V51.5499C115.364 52.4485 115.075 53.3256 114.53 54.0399C113.923 54.797 113.105 55.3573 112.18 55.6499V55.7099C112.726 56.0335 113.194 56.4741 113.55 56.9999C113.929 57.6528 114.231 58.3475 114.45 59.0699L116 63.9999H112.06L110.6 59.4199C110.43 58.7544 110.085 58.1466 109.6 57.6599C109.172 57.2692 108.609 57.061 108.03 57.0799H103.38V63.9999H99.5801L99.5701 44.7099ZM109.1 53.8099C109.764 53.8424 110.414 53.6207 110.92 53.1899C111.138 52.9816 111.309 52.7296 111.423 52.4505C111.537 52.1713 111.59 51.8712 111.58 51.5699V49.7799C111.59 49.5435 111.551 49.3076 111.465 49.0872C111.379 48.8668 111.248 48.6668 111.08 48.4999C110.903 48.3369 110.694 48.2106 110.468 48.1283C110.241 48.0459 110.001 48.0091 109.76 48.0199H103.37V53.8099H109.1Z" fill="#E55E76"/>
<path d="M123.29 62.24L116.65 44.71H120.65L125.72 59.18H125.77L130.87 44.71H134.81L127.37 64H125.58C125.058 63.9999 124.55 63.8274 124.136 63.5091C123.722 63.1908 123.424 62.7447 123.29 62.24Z" fill="#E55E76"/>
<path d="M137.34 63.28C137.092 63.0376 136.898 62.7459 136.771 62.4237C136.643 62.1015 136.585 61.7561 136.6 61.41V44.71H151.31V48H140.4V52.47H150.49V55.78H140.4V60.68H151.31V64H139.31C138.95 64.0197 138.59 63.9661 138.251 63.8423C137.912 63.7186 137.602 63.5272 137.34 63.28Z" fill="#E55E76"/>
<path d="M15.89 9.39001H-1.23999V26.52H15.89V9.39001Z" fill="#E55E76"/>
<path d="M15.89 28.1801H-1.23999V45.3101H15.89V28.1801Z" fill="#E55E76"/>
<path d="M15.89 46.9399H-1.23999V64.0699H15.89V46.9399Z" fill="#E55E76"/>
<path d="M34.64 0H17.51V17.13H34.64V0Z" fill="#E55E76"/>
<path d="M34.64 18.79H17.51V35.92H34.64V18.79Z" fill="#E55E76"/>
<path d="M34.64 37.54H17.51V54.67H34.64V37.54Z" fill="#E55E76"/>
<path d="M53.4 9.39001H36.27V26.52H53.4V9.39001Z" fill="#E55E76"/>
<path d="M53.4 28.1801H36.27V45.3101H53.4V28.1801Z" fill="#E55E76"/>
<path d="M53.4 46.9399H36.27V64.0699H53.4V46.9399Z" fill="#E55E76"/>
</g>
<defs>
<clipPath id="clip0_189_434">
<rect width="190.21" height="64.23" fill="white" transform="translate(-20)"/>
</clipPath>
</defs>
</svg>
