<svg width="76" height="123" viewBox="0 0 76 123" fill="none" xmlns="http://www.w3.org/2000/svg">
<path d="M75.4415 21.3754L38.5856 0.175985L38.3677 0.0676866C38.2503 0.0231191 38.1257 0.000182629 38 0V0C37.8788 0.00151113 37.7589 0.0244304 37.6458 0.0676866C37.5784 0.0910037 37.5144 0.122853 37.4552 0.162448L0.572001 21.1453C0.397299 21.2334 0.25177 21.3696 0.152761 21.5376C0.0537514 21.7056 0.00543742 21.8983 0.0135778 22.0929C0.0135778 22.0929 0.0135778 22.0929 0.0135778 22.1741V64.3564C0.0214679 64.5511 0.0778604 64.7409 0.177699 64.9086C0.277537 65.0764 0.4177 65.2169 0.585621 65.3175L37.3598 86.4222C37.5451 86.5592 37.769 86.635 38 86.6388C38.1333 86.6415 38.2649 86.6088 38.3813 86.544C38.4971 86.4988 38.6069 86.4397 38.7082 86.368L75.1827 65.6018C75.3094 65.5754 75.4287 65.5217 75.5323 65.4445C75.6358 65.3674 75.7211 65.2686 75.782 65.1551C75.8809 64.9958 75.9372 64.8141 75.9455 64.6271C75.9455 64.6271 75.9455 64.5594 75.9455 64.5188V22.6344C76.0155 22.3988 76.0039 22.1466 75.9126 21.9183C75.8212 21.69 75.6553 21.4988 75.4415 21.3754ZM38 84.2291L3.36411 64.3293L12.7075 58.9956L37.4279 73.2098C37.6008 73.3151 37.7975 73.3756 38 73.3858C38.199 73.3659 38.3953 73.3251 38.5856 73.2639C38.6831 73.2117 38.7707 73.143 38.8444 73.0609L63.1698 59.1851L72.5405 64.6L38 84.2291ZM2.30175 22.7562L36.8559 3.07297V13.7539L12.1899 27.8327L12.0946 27.9004C11.8754 28.0672 11.7252 28.308 11.6724 28.5773C11.6657 28.6176 11.6657 28.6588 11.6724 28.6991C11.6648 28.7302 11.6648 28.7627 11.6724 28.7939V57.0191L2.30175 62.2716V22.7562ZM50.258 36.3071V49.1269L39.1032 42.7373V29.9445L50.258 36.3071ZM38 57.4659L26.8179 51.0221L38 44.6731L49.2093 51.1033L38 57.4659ZM36.8695 42.7102L25.6602 49.0592V36.2529L36.8695 29.8768V42.7102ZM13.9333 30.7974L18.5777 33.5048L23.3584 36.2123V51.0357C23.3664 51.2322 23.4228 51.4238 23.5225 51.5937C23.6222 51.7636 23.7623 51.9066 23.9304 52.0103L36.8695 59.3882V70.2993L13.9197 57.0868L13.9333 30.7974ZM39.1577 59.4559L52.0422 52.1186C52.1942 52.0325 52.323 51.9112 52.4178 51.7651C52.5126 51.6191 52.5707 51.4524 52.587 51.2793C52.587 51.2793 52.587 51.2793 52.587 51.1981V36.3612L62.1211 30.9463V57.2087L39.1577 70.2993V59.4559ZM51.4157 34.3983L38.858 27.1423C38.7002 27.0005 38.5076 26.9024 38.2996 26.858H38.177H38.0272C37.8097 26.8538 37.596 26.9151 37.4143 27.034L24.6114 34.3171L15.0774 28.9022L38 15.7168L60.9634 28.9563L51.4157 34.3983ZM64.4229 57.2899V28.8615C64.4229 28.8615 64.4229 28.7803 64.4229 28.7397C64.3997 28.5875 64.349 28.4407 64.2731 28.3065C64.2163 28.2206 64.1475 28.1431 64.0688 28.0764C64.0688 28.0764 63.8781 28.0222 63.8781 28.0087V27.941L39.1577 13.7539V3.15419L73.6573 23.0134V62.6101L64.4229 57.2899Z" fill="white"/>
<path d="M13.8379 109.002C13.8379 105.916 11.8494 104.021 8.6078 104.021H1.38916V122.973H9.23432C9.9907 123.012 10.7468 122.89 11.4517 122.615C12.1565 122.339 12.7937 121.917 13.3203 121.376C14.3222 120.324 14.8698 118.925 14.8458 117.477C14.8339 116.468 14.5262 115.485 13.9605 114.647C13.4442 113.793 12.6298 113.157 11.6723 112.861C12.3799 112.506 12.9645 111.949 13.3505 111.262C13.7365 110.574 13.9063 109.787 13.8379 109.002ZM4.16765 106.566H8.32178C8.67224 106.517 9.02916 106.546 9.36691 106.651C9.70467 106.756 10.0149 106.934 10.2753 107.172C10.5357 107.41 10.7398 107.703 10.873 108.028C11.0063 108.354 11.0653 108.705 11.0458 109.057C11.084 109.396 11.0499 109.74 10.9456 110.066C10.8414 110.392 10.6694 110.692 10.4407 110.947C10.2121 111.203 9.93192 111.407 9.61848 111.548C9.30505 111.689 8.96534 111.762 8.62142 111.764H4.16765V106.566ZM9.04364 114.228C9.45852 114.227 9.86806 114.321 10.241 114.501C10.614 114.682 10.9405 114.945 11.1956 115.27C11.7294 115.873 12.0289 116.646 12.0401 117.45C12.0566 117.843 11.9927 118.236 11.8522 118.604C11.7116 118.972 11.4973 119.308 11.2222 119.592C10.9472 119.875 10.6171 120.1 10.252 120.253C9.88691 120.406 9.49435 120.484 9.09812 120.482H4.16765V114.228H9.04364ZM27.6623 115.852C30.9311 115.554 32.5383 113.145 32.5383 110.004C32.578 108.466 32.0554 106.965 31.0673 105.781C30.5423 105.183 29.8859 104.713 29.1491 104.408C28.4122 104.103 27.6145 103.97 26.8178 104.021H19.463V122.973H22.187V115.988H24.4752L29.3375 123H32.6745L27.6623 115.852ZM26.7497 106.566C30.6315 106.336 30.8358 113.673 26.6135 113.416H22.2415V106.566H26.7497ZM37.3053 123H40.0293V104.048H37.3053V123ZM58.3074 109.002C58.3074 105.916 56.3189 104.021 53.0773 104.021H45.8587V122.973H53.7039C54.4601 123.012 55.216 122.889 55.9207 122.613C56.6254 122.338 57.2627 121.916 57.7899 121.376C58.8034 120.32 59.3565 118.909 59.3289 117.45C59.3077 116.449 58.9955 115.476 58.43 114.647C57.9138 113.793 57.0994 113.157 56.1419 112.861C56.8483 112.505 57.4317 111.948 57.8176 111.26C58.2034 110.573 58.374 109.787 58.3074 109.002ZM48.6372 106.566H52.7232C53.0732 106.52 53.4292 106.551 53.7658 106.656C54.1025 106.762 54.4117 106.94 54.6715 107.178C54.9313 107.415 55.1355 107.707 55.2695 108.031C55.4036 108.356 55.4642 108.706 55.4472 109.057C55.4855 109.396 55.4513 109.74 55.3471 110.066C55.2428 110.392 55.0708 110.692 54.8421 110.947C54.6135 111.203 54.3334 111.407 54.0199 111.548C53.7065 111.689 53.3668 111.762 53.0229 111.764H48.6372V106.566ZM53.4996 114.228C53.9167 114.225 54.329 114.318 54.7044 114.498C55.0799 114.679 55.4086 114.943 55.6652 115.27C56.199 115.873 56.4984 116.646 56.5096 117.45C56.5243 117.843 56.459 118.235 56.3177 118.602C56.1764 118.969 55.9621 119.305 55.6874 119.588C55.4128 119.871 55.0835 120.096 54.7192 120.25C54.355 120.403 53.9633 120.482 53.5677 120.482H48.6372V114.228H53.4996ZM63.8781 123H75.5232V120.482H66.6702V115.067H74.2157V112.36H66.6702V106.566H75.3053V104.021H63.8781V123Z" fill="white"/>
</svg>
