<svg width="24" height="24" viewBox="0 0 24 24" fill="none" xmlns="http://www.w3.org/2000/svg">
<mask id="path-1-inside-1_250_1839" fill="white">
<path d="M4.5 4.52749C4.93957 4.52749 5.36927 4.65784 5.73476 4.90205C6.10025 5.14627 6.38511 5.49337 6.55333 5.89948C6.72154 6.30559 6.76556 6.75246 6.6798 7.18359C6.59405 7.61471 6.38237 8.01072 6.07155 8.32155C5.76073 8.63237 5.36471 8.84404 4.93359 8.9298C4.50247 9.01556 4.05559 8.97154 3.64949 8.80333C3.24338 8.63511 2.89627 8.35025 2.65206 7.98476C2.40784 7.61927 2.2775 7.18957 2.2775 6.75C2.2775 6.16055 2.51165 5.59525 2.92845 5.17845C3.34525 4.76165 3.91056 4.52749 4.5 4.52749V4.52749ZM4.5 3C3.75832 3 3.0333 3.21993 2.41661 3.63199C1.79993 4.04404 1.31928 4.62971 1.03545 5.31494C0.751625 6.00016 0.677362 6.75416 0.822057 7.48159C0.966751 8.20902 1.3239 8.8772 1.84835 9.40165C2.3728 9.9261 3.04098 10.2832 3.76841 10.4279C4.49584 10.5726 5.24984 10.4984 5.93506 10.2145C6.62029 9.93072 7.20596 9.45007 7.61801 8.83339C8.03007 8.2167 8.25 7.49168 8.25 6.75C8.25 5.75544 7.85491 4.80161 7.15165 4.09835C6.44839 3.39509 5.49456 3 4.5 3V3Z"/>
</mask>
<path d="M4.5 4.52749C4.93957 4.52749 5.36927 4.65784 5.73476 4.90205C6.10025 5.14627 6.38511 5.49337 6.55333 5.89948C6.72154 6.30559 6.76556 6.75246 6.6798 7.18359C6.59405 7.61471 6.38237 8.01072 6.07155 8.32155C5.76073 8.63237 5.36471 8.84404 4.93359 8.9298C4.50247 9.01556 4.05559 8.97154 3.64949 8.80333C3.24338 8.63511 2.89627 8.35025 2.65206 7.98476C2.40784 7.61927 2.2775 7.18957 2.2775 6.75C2.2775 6.16055 2.51165 5.59525 2.92845 5.17845C3.34525 4.76165 3.91056 4.52749 4.5 4.52749V4.52749ZM4.5 3C3.75832 3 3.0333 3.21993 2.41661 3.63199C1.79993 4.04404 1.31928 4.62971 1.03545 5.31494C0.751625 6.00016 0.677362 6.75416 0.822057 7.48159C0.966751 8.20902 1.3239 8.8772 1.84835 9.40165C2.3728 9.9261 3.04098 10.2832 3.76841 10.4279C4.49584 10.5726 5.24984 10.4984 5.93506 10.2145C6.62029 9.93072 7.20596 9.45007 7.61801 8.83339C8.03007 8.2167 8.25 7.49168 8.25 6.75C8.25 5.75544 7.85491 4.80161 7.15165 4.09835C6.44839 3.39509 5.49456 3 4.5 3V3Z" fill="#231815"/>
<path d="M2.2775 6.75H0.277496H2.2775ZM4.5 3H6.5V1H4.5V3ZM8.25 6.75H10.25H8.25ZM4.5 3H2.5V5H4.5V3ZM4.5 6.52749C4.54401 6.52749 4.58703 6.54054 4.62362 6.56499L6.8459 3.23912C6.15151 2.77514 5.33513 2.52749 4.5 2.52749V6.52749ZM4.62362 6.56499C4.66021 6.58944 4.68873 6.62419 4.70557 6.66485L8.40109 5.13412C8.0815 4.36256 7.54029 3.70309 6.8459 3.23912L4.62362 6.56499ZM4.70557 6.66485C4.72241 6.70551 4.72682 6.75025 4.71823 6.79341L8.64137 7.57377C8.8043 6.75468 8.72068 5.90568 8.40109 5.13412L4.70557 6.66485ZM4.71823 6.79341C4.70965 6.83657 4.68845 6.87622 4.65734 6.90733L7.48576 9.73576C8.07629 9.14523 8.47845 8.39285 8.64137 7.57377L4.71823 6.79341ZM4.65734 6.90733C4.62622 6.93845 4.58657 6.95964 4.54341 6.96823L5.32377 10.8914C6.14286 10.7284 6.89523 10.3263 7.48576 9.73576L4.65734 6.90733ZM4.54341 6.96823C4.50025 6.97681 4.45551 6.97241 4.41485 6.95557L2.88412 10.6511C3.65568 10.9707 4.50468 11.0543 5.32377 10.8914L4.54341 6.96823ZM4.41485 6.95557C4.37419 6.93873 4.33944 6.91021 4.315 6.87362L0.989117 9.0959C1.45309 9.79029 2.11256 10.3315 2.88412 10.6511L4.41485 6.95557ZM4.315 6.87362C4.29055 6.83703 4.2775 6.79401 4.2775 6.75H0.277496C0.277496 7.58513 0.525142 8.40151 0.989117 9.0959L4.315 6.87362ZM4.2775 6.75C4.2775 6.69099 4.30094 6.63439 4.34267 6.59266L1.51424 3.76424C0.722366 4.55611 0.277496 5.63012 0.277496 6.75H4.2775ZM4.34267 6.59266C4.38439 6.55094 4.44099 6.52749 4.5 6.52749V2.52749C3.38012 2.52749 2.30611 2.97236 1.51424 3.76424L4.34267 6.59266ZM4.5 1C3.36276 1 2.25106 1.33723 1.30547 1.96905L3.52775 5.29493C3.81554 5.10264 4.15388 5 4.5 5V1ZM1.30547 1.96905C0.35989 2.60087 -0.377102 3.4989 -0.812306 4.54957L2.88321 6.0803C3.01567 5.76053 3.23997 5.48722 3.52775 5.29493L1.30547 1.96905ZM-0.812306 4.54957C-1.24751 5.60024 -1.36138 6.75638 -1.13951 7.87177L2.78363 7.09141C2.7161 6.75194 2.75076 6.40007 2.88321 6.0803L-0.812306 4.54957ZM-1.13951 7.87177C-0.917649 8.98716 -0.370014 10.0117 0.434138 10.8159L3.26256 7.98744C3.01782 7.74269 2.85115 7.43087 2.78363 7.09141L-1.13951 7.87177ZM0.434138 10.8159C1.23829 11.62 2.26284 12.1676 3.37823 12.3895L4.15859 8.46637C3.81913 8.39885 3.50731 8.23218 3.26256 7.98744L0.434138 10.8159ZM3.37823 12.3895C4.49362 12.6114 5.64976 12.4975 6.70043 12.0623L5.1697 8.36679C4.84993 8.49924 4.49806 8.5339 4.15859 8.46637L3.37823 12.3895ZM6.70043 12.0623C7.75111 11.6271 8.64913 10.8901 9.28095 9.94453L5.95507 7.72225C5.76278 8.01003 5.48947 8.23433 5.1697 8.36679L6.70043 12.0623ZM9.28095 9.94453C9.91277 8.99895 10.25 7.88724 10.25 6.75H6.25C6.25 7.09612 6.14736 7.43446 5.95507 7.72225L9.28095 9.94453ZM10.25 6.75C10.25 5.225 9.6442 3.76247 8.56586 2.68414L5.73744 5.51256C6.06563 5.84075 6.25 6.28587 6.25 6.75H10.25ZM8.56586 2.68414C7.48753 1.6058 6.025 1 4.5 1V5C4.96413 5 5.40925 5.18437 5.73744 5.51256L8.56586 2.68414ZM6.5 3V3H2.5V3H6.5Z" fill="black" mask="url(#path-1-inside-1_250_1839)"/>
<mask id="path-3-inside-2_250_1839" fill="white">
<path d="M19.5 18.7225C19.0604 18.7225 18.6307 18.5922 18.2652 18.3479C17.8998 18.1037 17.6149 17.7566 17.4467 17.3505C17.2785 16.9444 17.2344 16.4975 17.3202 16.0664C17.406 15.6353 17.6176 15.2393 17.9285 14.9285C18.2393 14.6176 18.6353 14.406 19.0664 14.3202C19.4975 14.2344 19.9444 14.2785 20.3505 14.4467C20.7566 14.6149 21.1037 14.8998 21.3479 15.2652C21.5922 15.6307 21.7225 16.0604 21.7225 16.5C21.7225 17.0894 21.4883 17.6547 21.0715 18.0715C20.6547 18.4883 20.0894 18.7225 19.5 18.7225V18.7225ZM19.5 20.25C20.2417 20.25 20.9667 20.0301 21.5834 19.618C22.2001 19.206 22.6807 18.6203 22.9645 17.9351C23.2484 17.2498 23.3226 16.4958 23.1779 15.7684C23.0332 15.041 22.6761 14.3728 22.1516 13.8484C21.6272 13.3239 20.959 12.9668 20.2316 12.8221C19.5042 12.6774 18.7502 12.7516 18.0649 13.0355C17.3797 13.3193 16.794 13.7999 16.382 14.4166C15.9699 15.0333 15.75 15.7583 15.75 16.5C15.75 17.4946 16.1451 18.4484 16.8483 19.1516C17.5516 19.8549 18.5054 20.25 19.5 20.25V20.25Z"/>
</mask>
<path d="M19.5 18.7225C19.0604 18.7225 18.6307 18.5922 18.2652 18.3479C17.8998 18.1037 17.6149 17.7566 17.4467 17.3505C17.2785 16.9444 17.2344 16.4975 17.3202 16.0664C17.406 15.6353 17.6176 15.2393 17.9285 14.9285C18.2393 14.6176 18.6353 14.406 19.0664 14.3202C19.4975 14.2344 19.9444 14.2785 20.3505 14.4467C20.7566 14.6149 21.1037 14.8998 21.3479 15.2652C21.5922 15.6307 21.7225 16.0604 21.7225 16.5C21.7225 17.0894 21.4883 17.6547 21.0715 18.0715C20.6547 18.4883 20.0894 18.7225 19.5 18.7225V18.7225ZM19.5 20.25C20.2417 20.25 20.9667 20.0301 21.5834 19.618C22.2001 19.206 22.6807 18.6203 22.9645 17.9351C23.2484 17.2498 23.3226 16.4958 23.1779 15.7684C23.0332 15.041 22.6761 14.3728 22.1516 13.8484C21.6272 13.3239 20.959 12.9668 20.2316 12.8221C19.5042 12.6774 18.7502 12.7516 18.0649 13.0355C17.3797 13.3193 16.794 13.7999 16.382 14.4166C15.9699 15.0333 15.75 15.7583 15.75 16.5C15.75 17.4946 16.1451 18.4484 16.8483 19.1516C17.5516 19.8549 18.5054 20.25 19.5 20.25V20.25Z" fill="#231815"/>
<path d="M21.7225 16.5L23.7225 16.5L21.7225 16.5ZM19.5 20.25L17.5 20.25L17.5 22.25L19.5 22.25L19.5 20.25ZM15.75 16.5L13.75 16.5L15.75 16.5ZM19.5 20.25L21.5 20.25L21.5 18.25L19.5 18.25L19.5 20.25ZM19.5 16.7225C19.456 16.7225 19.413 16.7095 19.3764 16.685L17.1541 20.0109C17.8485 20.4749 18.6649 20.7225 19.5 20.7225L19.5 16.7225ZM19.3764 16.685C19.3398 16.6606 19.3113 16.6258 19.2944 16.5851L15.5989 18.1159C15.9185 18.8874 16.4597 19.5469 17.1541 20.0109L19.3764 16.685ZM19.2944 16.5851C19.2776 16.5445 19.2732 16.4998 19.2818 16.4566L15.3586 15.6762C15.1957 16.4953 15.2793 17.3443 15.5989 18.1159L19.2944 16.5851ZM19.2818 16.4566C19.2904 16.4134 19.3115 16.3738 19.3427 16.3427L16.5142 13.5142C15.9237 14.1048 15.5216 14.8571 15.3586 15.6762L19.2818 16.4566ZM19.3427 16.3427C19.3738 16.3115 19.4134 16.2904 19.4566 16.2818L18.6762 12.3586C17.8571 12.5216 17.1048 12.9237 16.5142 13.5142L19.3427 16.3427ZM19.4566 16.2818C19.4998 16.2732 19.5445 16.2776 19.5851 16.2944L21.1159 12.5989C20.3443 12.2793 19.4953 12.1957 18.6762 12.3586L19.4566 16.2818ZM19.5851 16.2944C19.6258 16.3113 19.6606 16.3398 19.685 16.3764L23.0109 14.1541C22.5469 13.4597 21.8874 12.9185 21.1159 12.5989L19.5851 16.2944ZM19.685 16.3764C19.7095 16.413 19.7225 16.456 19.7225 16.5L23.7225 16.5C23.7225 15.6649 23.4749 14.8485 23.0109 14.1541L19.685 16.3764ZM19.7225 16.5C19.7225 16.559 19.6991 16.6156 19.6573 16.6573L22.4858 19.4858C23.2776 18.6939 23.7225 17.6199 23.7225 16.5L19.7225 16.5ZM19.6573 16.6573C19.6156 16.6991 19.559 16.7225 19.5 16.7225L19.5 20.7225C20.6199 20.7225 21.6939 20.2776 22.4858 19.4858L19.6573 16.6573ZM19.5 22.25C20.6372 22.25 21.7489 21.9128 22.6945 21.281L20.4722 17.9551C20.1845 18.1474 19.8461 18.25 19.5 18.25L19.5 22.25ZM22.6945 21.281C23.6401 20.6491 24.3771 19.7511 24.8123 18.7004L21.1168 17.1697C20.9843 17.4895 20.76 17.7628 20.4722 17.9551L22.6945 21.281ZM24.8123 18.7004C25.2475 17.6498 25.3614 16.4936 25.1395 15.3782L21.2164 16.1586C21.2839 16.4981 21.2492 16.8499 21.1168 17.1697L24.8123 18.7004ZM25.1395 15.3782C24.9176 14.2628 24.37 13.2383 23.5659 12.4341L20.7374 15.2626C20.9822 15.5073 21.1488 15.8191 21.2164 16.1586L25.1395 15.3782ZM23.5659 12.4341C22.7617 11.63 21.7372 11.0824 20.6218 10.8605L19.8414 14.7836C20.1809 14.8512 20.4927 15.0178 20.7374 15.2626L23.5659 12.4341ZM20.6218 10.8605C19.5064 10.6386 18.3502 10.7525 17.2996 11.1877L18.8303 14.8832C19.1501 14.7508 19.5019 14.7161 19.8414 14.7836L20.6218 10.8605ZM17.2996 11.1877C16.2489 11.6229 15.3509 12.3599 14.7191 13.3055L18.0449 15.5278C18.2372 15.24 18.5105 15.0157 18.8303 14.8832L17.2996 11.1877ZM14.7191 13.3055C14.0872 14.2511 13.75 15.3628 13.75 16.5L17.75 16.5C17.75 16.1539 17.8526 15.8155 18.0449 15.5278L14.7191 13.3055ZM13.75 16.5C13.75 18.025 14.3558 19.4875 15.4341 20.5659L18.2626 17.7374C17.9344 17.4092 17.75 16.9641 17.75 16.5L13.75 16.5ZM15.4341 20.5659C16.5125 21.6442 17.975 22.25 19.5 22.25L19.5 18.25C19.0359 18.25 18.5908 18.0656 18.2626 17.7374L15.4341 20.5659ZM17.5 20.25V20.25L21.5 20.25V20.25L17.5 20.25Z" fill="black" mask="url(#path-3-inside-2_250_1839)"/>
<path d="M7.5 6.68262H23.25" stroke="black" stroke-width="2" stroke-miterlimit="10"/>
<path d="M16.5 16.5674L0.75 16.5674" stroke="black" stroke-width="2" stroke-miterlimit="10"/>
</svg>
